<svg xmlns="http://www.w3.org/2000/svg" width="294.821" height="45.898"><defs><linearGradient id="a" x1=".5" x2=".5" y2="1" gradientUnits="objectBoundingBox"><stop offset="0" stop-color="#efddbf"/><stop offset="1" stop-color="#d1b77e"/></linearGradient></defs><g fill="url(#a)" data-name="Group 25" transform="translate(-292.637 -1704.904)"><path d="m318.13 1705.803 6.555 13.285 14.659 2.13a1.614 1.614 0 0 1 .894 2.753l-10.607 10.339 2.5 14.6a1.613 1.613 0 0 1-2.341 1.7l-13.11-6.9-13.11 6.9a1.614 1.614 0 0 1-2.341-1.7l2.5-14.6-10.604-10.34a1.614 1.614 0 0 1 .894-2.753l14.659-2.13 6.559-13.284a1.615 1.615 0 0 1 2.9 0Z"/><path d="m379.907 1705.803 6.555 13.285 14.659 2.13a1.614 1.614 0 0 1 .894 2.753l-10.607 10.339 2.5 14.6a1.613 1.613 0 0 1-2.341 1.7l-13.11-6.9-13.11 6.9a1.614 1.614 0 0 1-2.341-1.7l2.5-14.6-10.604-10.34a1.614 1.614 0 0 1 .894-2.753l14.659-2.13 6.559-13.284a1.615 1.615 0 0 1 2.9 0Zm61.753 0 6.555 13.285 14.659 2.13a1.614 1.614 0 0 1 .894 2.753l-10.607 10.339 2.5 14.6a1.613 1.613 0 0 1-2.341 1.7l-13.11-6.9-13.11 6.9a1.614 1.614 0 0 1-2.341-1.7l2.5-14.6-10.604-10.34a1.614 1.614 0 0 1 .894-2.753l14.659-2.13 6.559-13.284a1.615 1.615 0 0 1 2.9 0Zm61.448 0 6.555 13.285 14.659 2.13a1.614 1.614 0 0 1 .894 2.753l-10.607 10.339 2.5 14.6a1.613 1.613 0 0 1-2.341 1.7l-13.11-6.9-13.11 6.9a1.614 1.614 0 0 1-2.341-1.7l2.5-14.6-10.604-10.34a1.614 1.614 0 0 1 .894-2.753l14.659-2.13 6.559-13.284a1.615 1.615 0 0 1 2.9 0Zm61.753 0 6.555 13.285 14.659 2.13a1.614 1.614 0 0 1 .894 2.753l-10.607 10.339 2.5 14.6a1.613 1.613 0 0 1-2.341 1.7l-13.11-6.9-13.11 6.9a1.614 1.614 0 0 1-2.341-1.7l2.5-14.6-10.604-10.34a1.614 1.614 0 0 1 .894-2.753l14.659-2.13 6.559-13.284a1.615 1.615 0 0 1 2.9 0Z" data-name="np_stars_6210254_000000"/></g></svg>